<svg width="23" height="18" viewBox="0 0 23 18" fill="none" xmlns="http://www.w3.org/2000/svg">
    <g clip-path="url(#clip0_0_1)">
        <path fill-rule="evenodd" clip-rule="evenodd" d="M7 8H5V6C5 5.4475 4.55225 5 4 5C3.44775 5 3 5.4475 3 6V8H1C0.44775 8 0 8.4475 0 9C0 9.5525 0.44775 10 1 10H3V12C3 12.5525 3.44775 13 4 13C4.55225 13 5 12.5525 5 12V10H7C7.55225 10 8 9.5525 8 9C8 8.4475 7.55225 8 7 8Z" fill="white"/>
    </g>
    <path d="M22.6105 14.2106C21.9447 13.0276 20.8542 11.6877 19.0789 10.926C18.0635 11.636 16.83 12.054 15.5002 12.054C14.1697 12.054 12.9361 11.636 11.9207 10.926C10.1454 11.6877 9.05488 13.0277 8.38944 14.2106C7.50629 15.7797 8.1987 17.9999 9.72609 17.9999C11.2535 17.9999 15.5002 17.9999 15.5002 17.9999C15.5002 17.9999 19.7465 17.9999 21.274 17.9999C22.8013 17.9999 23.4937 15.7797 22.6105 14.2106Z" fill="white"/>
    <path d="M15.5004 10.5694C18.1082 10.5694 20.2217 8.45624 20.2217 5.84996V4.71941C20.2217 2.11317 18.1082 0 15.5004 0C12.8921 0 10.7783 2.11317 10.7783 4.71945V5.85C10.7783 8.45624 12.8921 10.5694 15.5004 10.5694Z" fill="white"/>
    <defs>
        <clipPath id="clip0_0_1">
            <rect width="8" height="8" fill="white" transform="translate(0 5)"/>
        </clipPath>
    </defs>
</svg>
